<mxfile host="app.diagrams.net" modified="2023-08-25T14:04:26.082Z" agent="Mozilla/5.0 (X11; Linux x86_64; rv:109.0) Gecko/20100101 Firefox/112.0" etag="u3c9B4p1UHmeAmhqSpXK" version="21.6.9" type="github">
  <diagram name="Página-1" id="SIYbuXYpK9TOq0z0JFj9">
    <mxGraphModel dx="1434" dy="718" grid="1" gridSize="10" guides="1" tooltips="1" connect="1" arrows="1" fold="1" page="1" pageScale="1" pageWidth="827" pageHeight="1169" math="0" shadow="0">
      <root>
        <mxCell id="0" />
        <mxCell id="1" parent="0" />
        <mxCell id="TuwIeX_-FEZKUFublZnZ-1" value="Floricultura" style="whiteSpace=wrap;html=1;aspect=fixed;" vertex="1" parent="1">
          <mxGeometry x="80" y="120" width="150" height="150" as="geometry" />
        </mxCell>
        <mxCell id="TuwIeX_-FEZKUFublZnZ-2" value="" style="endArrow=none;html=1;rounded=0;" edge="1" parent="1">
          <mxGeometry width="50" height="50" relative="1" as="geometry">
            <mxPoint x="230" y="184.5" as="sourcePoint" />
            <mxPoint x="310" y="184.5" as="targetPoint" />
          </mxGeometry>
        </mxCell>
        <mxCell id="TuwIeX_-FEZKUFublZnZ-3" value="Tem" style="rhombus;whiteSpace=wrap;html=1;" vertex="1" parent="1">
          <mxGeometry x="310" y="145" width="80" height="80" as="geometry" />
        </mxCell>
        <mxCell id="TuwIeX_-FEZKUFublZnZ-4" value="" style="endArrow=none;html=1;rounded=0;" edge="1" parent="1">
          <mxGeometry width="50" height="50" relative="1" as="geometry">
            <mxPoint x="390" y="184.5" as="sourcePoint" />
            <mxPoint x="470" y="184.5" as="targetPoint" />
          </mxGeometry>
        </mxCell>
        <mxCell id="TuwIeX_-FEZKUFublZnZ-6" value="Cliente" style="swimlane;fontStyle=0;childLayout=stackLayout;horizontal=1;startSize=30;horizontalStack=0;resizeParent=1;resizeParentMax=0;resizeLast=0;collapsible=1;marginBottom=0;whiteSpace=wrap;html=1;" vertex="1" parent="1">
          <mxGeometry x="470" y="130" width="140" height="150" as="geometry" />
        </mxCell>
        <mxCell id="TuwIeX_-FEZKUFublZnZ-7" value="RG" style="text;strokeColor=none;fillColor=none;align=left;verticalAlign=middle;spacingLeft=4;spacingRight=4;overflow=hidden;points=[[0,0.5],[1,0.5]];portConstraint=eastwest;rotatable=0;whiteSpace=wrap;html=1;" vertex="1" parent="TuwIeX_-FEZKUFublZnZ-6">
          <mxGeometry y="30" width="140" height="30" as="geometry" />
        </mxCell>
        <mxCell id="TuwIeX_-FEZKUFublZnZ-8" value="Nome" style="text;strokeColor=none;fillColor=none;align=left;verticalAlign=middle;spacingLeft=4;spacingRight=4;overflow=hidden;points=[[0,0.5],[1,0.5]];portConstraint=eastwest;rotatable=0;whiteSpace=wrap;html=1;" vertex="1" parent="TuwIeX_-FEZKUFublZnZ-6">
          <mxGeometry y="60" width="140" height="30" as="geometry" />
        </mxCell>
        <mxCell id="TuwIeX_-FEZKUFublZnZ-9" value="Telefone" style="text;strokeColor=none;fillColor=none;align=left;verticalAlign=middle;spacingLeft=4;spacingRight=4;overflow=hidden;points=[[0,0.5],[1,0.5]];portConstraint=eastwest;rotatable=0;whiteSpace=wrap;html=1;" vertex="1" parent="TuwIeX_-FEZKUFublZnZ-6">
          <mxGeometry y="90" width="140" height="30" as="geometry" />
        </mxCell>
        <mxCell id="TuwIeX_-FEZKUFublZnZ-10" value="Endereço" style="text;strokeColor=none;fillColor=none;align=left;verticalAlign=middle;spacingLeft=4;spacingRight=4;overflow=hidden;points=[[0,0.5],[1,0.5]];portConstraint=eastwest;rotatable=0;whiteSpace=wrap;html=1;" vertex="1" parent="TuwIeX_-FEZKUFublZnZ-6">
          <mxGeometry y="120" width="140" height="30" as="geometry" />
        </mxCell>
        <mxCell id="TuwIeX_-FEZKUFublZnZ-11" value="1" style="text;html=1;align=center;verticalAlign=middle;resizable=0;points=[];autosize=1;strokeColor=none;fillColor=none;" vertex="1" parent="1">
          <mxGeometry x="235" y="148" width="30" height="30" as="geometry" />
        </mxCell>
        <mxCell id="TuwIeX_-FEZKUFublZnZ-12" value="N" style="text;html=1;align=center;verticalAlign=middle;resizable=0;points=[];autosize=1;strokeColor=none;fillColor=none;" vertex="1" parent="1">
          <mxGeometry x="435" y="148" width="30" height="30" as="geometry" />
        </mxCell>
        <mxCell id="TuwIeX_-FEZKUFublZnZ-13" value="" style="endArrow=none;html=1;rounded=0;entryX=0.5;entryY=0;entryDx=0;entryDy=0;" edge="1" parent="1" target="TuwIeX_-FEZKUFublZnZ-15">
          <mxGeometry width="50" height="50" relative="1" as="geometry">
            <mxPoint x="539.5" y="280" as="sourcePoint" />
            <mxPoint x="540" y="360" as="targetPoint" />
          </mxGeometry>
        </mxCell>
        <mxCell id="TuwIeX_-FEZKUFublZnZ-15" value="Compra" style="rhombus;whiteSpace=wrap;html=1;" vertex="1" parent="1">
          <mxGeometry x="500" y="370" width="80" height="80" as="geometry" />
        </mxCell>
        <mxCell id="TuwIeX_-FEZKUFublZnZ-16" value="" style="endArrow=none;html=1;rounded=0;" edge="1" parent="1">
          <mxGeometry width="50" height="50" relative="1" as="geometry">
            <mxPoint x="580" y="410" as="sourcePoint" />
            <mxPoint x="640" y="370" as="targetPoint" />
          </mxGeometry>
        </mxCell>
        <mxCell id="TuwIeX_-FEZKUFublZnZ-17" value="Data" style="text;html=1;align=center;verticalAlign=middle;resizable=0;points=[];autosize=1;strokeColor=none;fillColor=none;" vertex="1" parent="1">
          <mxGeometry x="640" y="350" width="50" height="30" as="geometry" />
        </mxCell>
        <mxCell id="TuwIeX_-FEZKUFublZnZ-18" value="" style="endArrow=none;html=1;rounded=0;" edge="1" parent="1">
          <mxGeometry width="50" height="50" relative="1" as="geometry">
            <mxPoint x="420" y="410" as="sourcePoint" />
            <mxPoint x="500" y="410" as="targetPoint" />
          </mxGeometry>
        </mxCell>
        <mxCell id="TuwIeX_-FEZKUFublZnZ-19" value="Produto" style="swimlane;fontStyle=0;childLayout=stackLayout;horizontal=1;startSize=30;horizontalStack=0;resizeParent=1;resizeParentMax=0;resizeLast=0;collapsible=1;marginBottom=0;whiteSpace=wrap;html=1;" vertex="1" parent="1">
          <mxGeometry x="280" y="350" width="140" height="150" as="geometry" />
        </mxCell>
        <mxCell id="TuwIeX_-FEZKUFublZnZ-20" value="Nome" style="text;strokeColor=none;fillColor=none;align=left;verticalAlign=middle;spacingLeft=4;spacingRight=4;overflow=hidden;points=[[0,0.5],[1,0.5]];portConstraint=eastwest;rotatable=0;whiteSpace=wrap;html=1;" vertex="1" parent="TuwIeX_-FEZKUFublZnZ-19">
          <mxGeometry y="30" width="140" height="30" as="geometry" />
        </mxCell>
        <mxCell id="TuwIeX_-FEZKUFublZnZ-21" value="Tipo" style="text;strokeColor=none;fillColor=none;align=left;verticalAlign=middle;spacingLeft=4;spacingRight=4;overflow=hidden;points=[[0,0.5],[1,0.5]];portConstraint=eastwest;rotatable=0;whiteSpace=wrap;html=1;" vertex="1" parent="TuwIeX_-FEZKUFublZnZ-19">
          <mxGeometry y="60" width="140" height="30" as="geometry" />
        </mxCell>
        <mxCell id="TuwIeX_-FEZKUFublZnZ-22" value="Produto" style="text;strokeColor=none;fillColor=none;align=left;verticalAlign=middle;spacingLeft=4;spacingRight=4;overflow=hidden;points=[[0,0.5],[1,0.5]];portConstraint=eastwest;rotatable=0;whiteSpace=wrap;html=1;" vertex="1" parent="TuwIeX_-FEZKUFublZnZ-19">
          <mxGeometry y="90" width="140" height="30" as="geometry" />
        </mxCell>
        <mxCell id="TuwIeX_-FEZKUFublZnZ-23" value="Quantidade" style="text;strokeColor=none;fillColor=none;align=left;verticalAlign=middle;spacingLeft=4;spacingRight=4;overflow=hidden;points=[[0,0.5],[1,0.5]];portConstraint=eastwest;rotatable=0;whiteSpace=wrap;html=1;" vertex="1" parent="TuwIeX_-FEZKUFublZnZ-19">
          <mxGeometry y="120" width="140" height="30" as="geometry" />
        </mxCell>
        <mxCell id="TuwIeX_-FEZKUFublZnZ-24" value="1" style="text;html=1;align=center;verticalAlign=middle;resizable=0;points=[];autosize=1;strokeColor=none;fillColor=none;" vertex="1" parent="1">
          <mxGeometry x="545" y="278" width="30" height="30" as="geometry" />
        </mxCell>
        <mxCell id="TuwIeX_-FEZKUFublZnZ-25" value="N" style="text;html=1;align=center;verticalAlign=middle;resizable=0;points=[];autosize=1;strokeColor=none;fillColor=none;" vertex="1" parent="1">
          <mxGeometry x="475" y="378" width="30" height="30" as="geometry" />
        </mxCell>
        <mxCell id="TuwIeX_-FEZKUFublZnZ-26" value="" style="endArrow=none;html=1;rounded=0;entryX=0.2;entryY=1;entryDx=0;entryDy=0;entryPerimeter=0;" edge="1" parent="1">
          <mxGeometry width="50" height="50" relative="1" as="geometry">
            <mxPoint x="154.5" y="370" as="sourcePoint" />
            <mxPoint x="154.5" y="270" as="targetPoint" />
          </mxGeometry>
        </mxCell>
        <mxCell id="TuwIeX_-FEZKUFublZnZ-27" value="Tem" style="rhombus;whiteSpace=wrap;html=1;" vertex="1" parent="1">
          <mxGeometry x="115" y="370" width="80" height="80" as="geometry" />
        </mxCell>
        <mxCell id="TuwIeX_-FEZKUFublZnZ-28" value="" style="endArrow=none;html=1;rounded=0;entryX=0.014;entryY=0.933;entryDx=0;entryDy=0;entryPerimeter=0;" edge="1" parent="1" target="TuwIeX_-FEZKUFublZnZ-20">
          <mxGeometry width="50" height="50" relative="1" as="geometry">
            <mxPoint x="195" y="408" as="sourcePoint" />
            <mxPoint x="275" y="408" as="targetPoint" />
          </mxGeometry>
        </mxCell>
      </root>
    </mxGraphModel>
  </diagram>
</mxfile>
